# xmcd
#
# Track frame offsets:
#	150
#	17094
#	32159
#	49301
#	64381
#	78970
#	92278
#	108527
#	124565
#	140538
#	152728
#	167164
#	183015
#	196857
#
# Disc length: 2857 seconds
#
# Revision: 1
# Processed by: cddbd v1.5.2PL0 Copyright (c) Steve Scherf et al.
# Submitted via: audiograbber 1.83.01
#
DISCID=b10b270e
DTITLE=Various Artist - CDX Volume 550 (July 16, 2012)
DYEAR=2012
DGENRE=Country
TTITLE0=Lauren Alaina - Eighteen Inches 
TTITLE1=Tim McGraw - Right Back Atcha Babe [Radio Edit]
TTITLE2=Kelleigh Bannen - Sorry On The Rocks 
TTITLE3=Jaida Dreyer - Confessions 
TTITLE4=Bucky Covington - Drinking Side of Country (featuring Shooter Jennings)
TTITLE5=JB And The Moonshine Band - No Better Than This
TTITLE6=Lonestar - The Countdown 
TTITLE7=Matt Gary - City Lights
TTITLE8=Craig Morrison - Fences  
TTITLE9=Treva Blomquist - Near The Silver Mine
TTITLE10=One Night Rodeo - Real Good
TTITLE11=Vince Hatfield - Sometimes You Gotta Get Away
TTITLE12=Wheeler Sisters - This Is Gonna Get Ugly
TTITLE13=Rich Owen - We Surround Them
EXTD=
EXTT0=
EXTT1=
EXTT2=
EXTT3=
EXTT4=
EXTT5=
EXTT6=
EXTT7=
EXTT8=
EXTT9=
EXTT10=
EXTT11=
EXTT12=
EXTT13=
PLAYORDER=
